<?xml version="1.0" encoding="utf-8"?>
<svg viewBox="76.827 35.919 931.37 256.563" xmlns="http://www.w3.org/2000/svg">
  <g transform="matrix(0.582009, 0, 0, 0.569924, 337.241364, -202.517792)" style="">
    <path class="st1" d="M 963.1 681.9 C 962.472 685.625 962.482 692.539 962.939 701.233 C 963.46 711.133 964.562 723.342 965.965 735.779 C 969.018 762.856 973.494 791.016 976.5 798.8 C 982.1 813.2 991.4 803.1 991.4 803.1 L 983.5 675 L 963.1 681.9 Z" style="stroke: rgb(240, 88, 72); fill: none; stroke-width: 1.73621px;"/>
    <path class="st1" d="M 984.5 807.6 C 984.1 807.6 983.6 807.6 983.2 807.5 C 980 806.9 977.4 804.1 975.5 799.1 C 969.8 784.5 959.2 698.7 962 681.6 L 962.1 680.9 L 984.6 673.2 L 992.6 803.3 L 992.3 803.7 C 992.1 804 988.7 807.6 984.5 807.6 Z M 964.1 682.7 C 962.961 691.083 964.499 712.852 967.032 735.423 C 970.059 762.396 974.506 790.515 977.5 798.3 C 979.1 802.5 981.1 804.8 983.5 805.2 C 986.4 805.8 989.2 803.4 990.1 802.5 L 982.3 676.4 L 964.1 682.7 Z" style="fill: none;"/>
    <path class="st1" d="M825.5,643.9c2.9,18-26.9,62.2-45.5,88.3s-24.2,37.2-24.7,45.2c-0.5,7.9,9.3,5.1,9.3,13s-24.7,3.3-24.7,3.3 s-8.4-0.9-7-22.3s60-105.2,60-105.2L825.5,643.9z" style="fill: none;"/>
    <path class="st1" d="M753.7,796.1c-6.2,0-12.7-1.2-13.9-1.4c-0.3,0-9.4-1.3-7.9-23.5c1.4-21.5,57.9-102.4,60.3-105.8l0.3-0.3 l33.9-23.2l0.3,1.8c2.2,13.6-13.1,43.6-45.7,89.1c-17.3,24.3-24,36.4-24.5,44.6c-0.2,3.3,1.5,4.2,3.9,5.5 c2.4,1.3,5.4,2.9,5.4,7.5c0,1.4-0.6,2.6-1.7,3.5C762,795.6,757.9,796.1,753.7,796.1z M793.9,666.9c-3,4.3-58.4,84.1-59.7,104.4 c-1.3,19.8,5.9,21.1,6,21.1c5,0.9,18.8,2.7,22.5-0.4c0.6-0.5,0.8-1,0.8-1.7c0-3.2-1.8-4.2-4.2-5.5c-2.4-1.3-5.4-2.9-5.1-7.6 c0.5-8.7,7.3-21.1,24.9-45.8c30.7-43,46-71.7,45.5-85.6L793.9,666.9z" style="fill: rgb(240, 88, 72);"/>
    <path class="st0" d="M971.6,674c2.1,10.9,4.5,130.2,18.2,133c13.6,2.7,21.8-4.5,22.4-9.7c0.6-5.1-9.1-5.1-13.6-10 c-4.5-4.8-2.1-94.2,0-98.1c2.1-3.9,33.9-66.9,33.9-73.6c0-6.7,27-50.9,40.6-64.3l-30.4-56.5l-40.2,34.8l-36.1,107.9L971.6,674z" style="fill: rgb(255, 255, 255);"/>
    <path class="st0" d="M1042.7,504.9c-6.2,7.9-10.8,48.2-18.7,44.2c-7.9-4-27.2-24.4-19.9-36.9c7.4-12.5,31.2-28.4,51.6-26.1 c20.4,2.3,48.8,26.5,61.3,34c5.4,3.3-1.7,32.3-11.3,32.9s-43.2-2.8-43.2-2.8" style="fill: rgb(255, 255, 255);"/>
    <path class="st1" d="M1103,554.3c-11.9,0-39.4-2.8-40.7-2.9c-0.6-0.1-1.1-0.6-1-1.3c0.1-0.6,0.6-1.1,1.3-1c0.3,0,33.6,3.4,43,2.8 c4.5-0.3,8.9-8.7,10.9-16.9c1.9-7.5,1.4-12.9-0.1-13.9c-3.1-1.9-7.2-4.8-11.9-8.2c-14.3-10.1-33.8-24-48.9-25.7 c-20.3-2.3-43.5,13.6-50.5,25.5c-1.7,2.9-1.9,6.5-0.7,10.7c3.1,10.6,14.8,21.9,20.1,24.6c0.4,0.2,0.7,0.2,1.1,0 c3.2-1.5,6.4-13.5,9-23.1c2.4-9,4.6-17.4,7.3-20.8c0.4-0.5,1.1-0.6,1.6-0.2c0.5,0.4,0.6,1.1,0.2,1.6c-2.4,3-4.7,11.7-6.9,20 c-3.1,11.7-6,22.7-10.2,24.6c-1,0.4-2,0.4-3-0.1c-6.4-3.2-18.1-15.2-21.3-26c-1.4-4.8-1.1-9,0.9-12.5c7.4-12.4,31.5-29,52.7-26.6 c15.6,1.7,35.5,15.8,49.9,26.1c4.7,3.3,8.7,6.2,11.8,8.1c3.3,2,2.8,9.8,1.1,16.4c-2.1,8.4-6.7,18.3-13,18.7 C1105,554.3,1104,554.3,1103,554.3z" style="fill: rgb(240, 88, 72);"/>
    <path class="st0" d="M972.4,682.2c-37.1,2.4-123.2-47.3-137.4-43.9s-50,50.9-57.2,64.8s-24.5,40.3-32.4,53.6 c-7.9,13.3-7.6,27.9-5.5,30.6c2.1,2.7,12.1,5.1,9.7,10.9c-2.4,5.8-22.1,7.3-24.2,0c-2.1-7.3-3.1-57.8,26-82.1 c3.6-3-2.4-50.9,1.2-75.4c3.6-24.5,13.9-51.5,11.5-55.1c-2.4-3.6-45.7-13.6-62.4-43.9s-20-72.1-14.2-69.7s12.1,35.7,23.9,53.3 c11.8,17.6,54.2,39.7,63.6,43c9.4,3.3,40.9-10.3,80.3-6.7c39.4,3.6,90.9,1.2,107.2-7s42.3-26.8,42.3-26.8" style="fill: rgb(255, 255, 255);"/>
    <path class="st1" d="M 995.6 808.7 C 993.8 808.7 991.8 808.5 989.6 808.1 C 979.4 806.1 975.4 753.1 972.3 699 C 971.6 686.6 971 676.9 970.5 674.2 C 970.4 673.6 970.8 673 971.4 672.9 C 972 672.8 972.6 673.2 972.7 673.8 C 973.2 676.6 973.8 685.9 974.5 698.9 C 976.5 733 980.6 804 989.9 805.9 C 998.8 807.7 1004.3 804.9 1006.8 803.1 C 1009.2 801.4 1010.7 799.2 1011 797.2 C 1011.2 795.2 1009.1 794.2 1005.5 792.7 C 1002.8 791.6 999.8 790.3 997.7 788.1 C 994.2 784.39 994.326 739.375 995.54 711.121 C 996.06 699.011 996.78 689.98 997.5 688.6 C 1000.3 683.3 1031.3 621.8 1031.3 615.5 C 1031.3 608.4 1058.6 563.8 1072.3 550.4 C 1072.8 550 1073.5 550 1073.9 550.4 C 1074.3 550.9 1074.3 551.6 1073.9 552 C 1059.8 565.8 1033.6 609.6 1033.6 615.4 C 1033.6 622.7 999.9 688.9 999.5 689.5 C 999.001 690.593 998.491 696.362 998.059 704.586 C 996.674 730.973 996.098 782.641 999.3 786.3 C 1001.1 788.2 1003.7 789.3 1006.3 790.3 C 1009.9 791.8 1013.7 793.3 1013.2 797.2 C 1012.9 799.8 1011 802.6 1008.1 804.7 C 1006.1 806.5 1001.9 808.7 995.6 808.7 Z" style="fill: rgb(240, 88, 72);"/>
    <path class="st1" d="M736.4,804.2c-0.5,0-1,0-1.6,0c-5.8-0.3-9.6-2.4-10.6-5.7c-2.1-7.3-3.1-58.7,26.4-83.3 c1.3-1.5,0.7-14.7,0.3-26.4c-0.6-15.7-1.4-35.3,0.5-48.3c1.8-11.8,5.1-24.3,7.7-34.3c2.3-8.7,4.9-18.6,4-20 c-0.5-0.7-4.3-2.2-8-3.7c-14.6-6-41.8-17.2-54.5-40.3c-14.9-27.1-19.9-65.6-15.3-70.7c0.7-0.8,1.6-1,2.6-0.6 c3.1,1.3,5.7,8.3,9.9,20.5c3.8,10.8,8.5,24.3,14.5,33.2c11.9,17.7,54.4,39.5,63,42.6c3.5,1.2,11.1-0.2,20.7-2.1 c15.1-2.9,35.7-6.9,59.3-4.7c37.1,3.4,90,1.5,106.6-6.8c16.1-8,41.9-26.5,42.2-26.7c0.5-0.4,1.2-0.3,1.6,0.3 c0.4,0.5,0.3,1.2-0.3,1.6c-0.3,0.2-26.3,18.7-42.5,26.9c-17.2,8.6-69.7,10.6-107.8,7.1c-23.3-2.2-43.8,1.8-58.7,4.6 c-10.3,2-17.8,3.4-21.9,2c-8.8-3.1-52-25.3-64.2-43.5c-6.2-9.2-11-22.8-14.8-33.8c-3.1-8.9-6.3-18.2-8.6-19.1 c-2.8,1.9-0.6,38.5,15.7,68c12.3,22.3,39,33.3,53.3,39.2c5.8,2.4,8.2,3.4,9,4.6c1.5,2.2-0.1,8.7-3.7,21.9 c-2.6,9.9-5.9,22.3-7.7,34c-1.9,12.8-1.1,32.3-0.5,47.9c0.8,19.2,0.9,26.6-1.1,28.2c-28.7,23.9-27.8,73.8-25.7,80.9 c0.7,2.3,3.8,3.8,8.5,4c6.1,0.4,12.5-1.6,13.5-4.2c1.2-2.8-1.5-4.6-5.5-6.9c-1.7-1-3.2-1.9-4.1-2.9c-2.6-3.4-2.6-18.4,5.4-31.9 c2.8-4.8,6.9-11.3,11.2-18.2c7.7-12.4,16.5-26.4,21.2-35.3c7.3-14,43.3-62,58-65.4c6.3-1.5,24.4,6.2,47.4,16 c30.7,13.1,68.9,29.3,90.2,27.9c0.6,0,1.2,0.4,1.2,1.1c0,0.6-0.4,1.2-1.1,1.2c-21.8,1.4-60.3-15-91.2-28.1 c-21.7-9.2-40.4-17.2-46-15.9c-13.8,3.2-49.5,50.8-56.5,64.2c-4.7,9-13.5,23.1-21.2,35.5c-4.3,6.9-8.4,13.4-11.2,18.2 c-7.9,13.4-7.2,27.2-5.5,29.3c0.5,0.7,2,1.5,3.4,2.3c3.6,2.1,8.5,4.9,6.5,9.7C749.1,802.2,742.5,804.2,736.4,804.2z" style="fill: rgb(240, 88, 72);"/>
  </g>
  <g transform="matrix(1, 0, 0, 1, -743.715576, -464.049072)">
    <path class="st0" d="M1725,555.8c-4.7-0.6-1.1,10.5,3.2,11.1s2.9-6.5,1.4-8.6C1727.8,555.7,1725,555.8,1725,555.8z" style="fill: rgb(255, 255, 255);"/>
    <path class="st1" d="M 1729.697 566.068 C 1729.426 566.068 1729.245 566.068 1728.974 566.068 C 1725.449 565.582 1722.827 560.312 1723.189 557.474 C 1723.46 555.934 1724.545 555.042 1726.262 555.204 C 1726.804 555.204 1729.426 555.366 1731.234 557.636 C 1732.319 558.933 1733.494 562.825 1732.047 564.852 C 1731.595 565.663 1730.692 566.068 1729.697 566.068 Z M 1725.81 556.988 C 1725.539 556.988 1725.358 557.15 1725.268 557.636 C 1724.906 559.744 1727.166 563.879 1729.245 564.122 C 1729.968 564.203 1730.149 564.041 1730.33 563.798 C 1731.053 562.663 1730.42 559.663 1729.516 558.69 C 1728.16 556.988 1726.353 556.988 1726.172 556.988 L 1726.172 556.988 L 1725.991 556.988 C 1725.991 557.069 1725.901 556.988 1725.81 556.988 Z" style="fill: rgb(240, 88, 72);"/>
  </g>
  <g transform="matrix(0.444566, 0, 0, 0.390533, 139.492737, -57.179031)" style="">
    <path class="st1" d="M 963.1 681.9 C 962.472 685.625 962.482 692.539 962.939 701.233 C 963.46 711.133 964.562 723.342 965.965 735.779 C 969.018 762.856 973.494 791.016 976.5 798.8 C 982.1 813.2 991.4 803.1 991.4 803.1 L 983.5 675 L 963.1 681.9 Z" style="stroke: rgb(240, 88, 72); fill: none; stroke-width: 1.73621px;"/>
    <path class="st1" d="M 984.5 807.6 C 984.1 807.6 983.6 807.6 983.2 807.5 C 980 806.9 977.4 804.1 975.5 799.1 C 969.8 784.5 959.2 698.7 962 681.6 L 962.1 680.9 L 984.6 673.2 L 992.6 803.3 L 992.3 803.7 C 992.1 804 988.7 807.6 984.5 807.6 Z M 964.1 682.7 C 962.961 691.083 964.499 712.852 967.032 735.423 C 970.059 762.396 974.506 790.515 977.5 798.3 C 979.1 802.5 981.1 804.8 983.5 805.2 C 986.4 805.8 989.2 803.4 990.1 802.5 L 982.3 676.4 L 964.1 682.7 Z" style="fill: none;"/>
    <path class="st1" d="M825.5,643.9c2.9,18-26.9,62.2-45.5,88.3s-24.2,37.2-24.7,45.2c-0.5,7.9,9.3,5.1,9.3,13s-24.7,3.3-24.7,3.3 s-8.4-0.9-7-22.3s60-105.2,60-105.2L825.5,643.9z" style="fill: none;"/>
    <path class="st1" d="M753.7,796.1c-6.2,0-12.7-1.2-13.9-1.4c-0.3,0-9.4-1.3-7.9-23.5c1.4-21.5,57.9-102.4,60.3-105.8l0.3-0.3 l33.9-23.2l0.3,1.8c2.2,13.6-13.1,43.6-45.7,89.1c-17.3,24.3-24,36.4-24.5,44.6c-0.2,3.3,1.5,4.2,3.9,5.5 c2.4,1.3,5.4,2.9,5.4,7.5c0,1.4-0.6,2.6-1.7,3.5C762,795.6,757.9,796.1,753.7,796.1z M793.9,666.9c-3,4.3-58.4,84.1-59.7,104.4 c-1.3,19.8,5.9,21.1,6,21.1c5,0.9,18.8,2.7,22.5-0.4c0.6-0.5,0.8-1,0.8-1.7c0-3.2-1.8-4.2-4.2-5.5c-2.4-1.3-5.4-2.9-5.1-7.6 c0.5-8.7,7.3-21.1,24.9-45.8c30.7-43,46-71.7,45.5-85.6L793.9,666.9z" style="fill: rgb(240, 88, 72);"/>
    <path class="st0" d="M971.6,674c2.1,10.9,4.5,130.2,18.2,133c13.6,2.7,21.8-4.5,22.4-9.7c0.6-5.1-9.1-5.1-13.6-10 c-4.5-4.8-2.1-94.2,0-98.1c2.1-3.9,33.9-66.9,33.9-73.6c0-6.7,27-50.9,40.6-64.3l-30.4-56.5l-40.2,34.8l-36.1,107.9L971.6,674z" style="fill: rgb(255, 255, 255);"/>
    <path class="st0" d="M1042.7,504.9c-6.2,7.9-10.8,48.2-18.7,44.2c-7.9-4-27.2-24.4-19.9-36.9c7.4-12.5,31.2-28.4,51.6-26.1 c20.4,2.3,48.8,26.5,61.3,34c5.4,3.3-1.7,32.3-11.3,32.9s-43.2-2.8-43.2-2.8" style="fill: rgb(255, 255, 255);"/>
    <path class="st1" d="M1103,554.3c-11.9,0-39.4-2.8-40.7-2.9c-0.6-0.1-1.1-0.6-1-1.3c0.1-0.6,0.6-1.1,1.3-1c0.3,0,33.6,3.4,43,2.8 c4.5-0.3,8.9-8.7,10.9-16.9c1.9-7.5,1.4-12.9-0.1-13.9c-3.1-1.9-7.2-4.8-11.9-8.2c-14.3-10.1-33.8-24-48.9-25.7 c-20.3-2.3-43.5,13.6-50.5,25.5c-1.7,2.9-1.9,6.5-0.7,10.7c3.1,10.6,14.8,21.9,20.1,24.6c0.4,0.2,0.7,0.2,1.1,0 c3.2-1.5,6.4-13.5,9-23.1c2.4-9,4.6-17.4,7.3-20.8c0.4-0.5,1.1-0.6,1.6-0.2c0.5,0.4,0.6,1.1,0.2,1.6c-2.4,3-4.7,11.7-6.9,20 c-3.1,11.7-6,22.7-10.2,24.6c-1,0.4-2,0.4-3-0.1c-6.4-3.2-18.1-15.2-21.3-26c-1.4-4.8-1.1-9,0.9-12.5c7.4-12.4,31.5-29,52.7-26.6 c15.6,1.7,35.5,15.8,49.9,26.1c4.7,3.3,8.7,6.2,11.8,8.1c3.3,2,2.8,9.8,1.1,16.4c-2.1,8.4-6.7,18.3-13,18.7 C1105,554.3,1104,554.3,1103,554.3z" style="fill: rgb(240, 88, 72);"/>
    <path class="st0" d="M972.4,682.2c-37.1,2.4-123.2-47.3-137.4-43.9s-50,50.9-57.2,64.8s-24.5,40.3-32.4,53.6 c-7.9,13.3-7.6,27.9-5.5,30.6c2.1,2.7,12.1,5.1,9.7,10.9c-2.4,5.8-22.1,7.3-24.2,0c-2.1-7.3-3.1-57.8,26-82.1 c3.6-3-2.4-50.9,1.2-75.4c3.6-24.5,13.9-51.5,11.5-55.1c-2.4-3.6-45.7-13.6-62.4-43.9s-20-72.1-14.2-69.7s12.1,35.7,23.9,53.3 c11.8,17.6,54.2,39.7,63.6,43c9.4,3.3,40.9-10.3,80.3-6.7c39.4,3.6,90.9,1.2,107.2-7s42.3-26.8,42.3-26.8" style="fill: rgb(255, 255, 255);"/>
    <path class="st1" d="M 995.6 808.7 C 993.8 808.7 991.8 808.5 989.6 808.1 C 979.4 806.1 975.4 753.1 972.3 699 C 971.6 686.6 971 676.9 970.5 674.2 C 970.4 673.6 970.8 673 971.4 672.9 C 972 672.8 972.6 673.2 972.7 673.8 C 973.2 676.6 973.8 685.9 974.5 698.9 C 976.5 733 980.6 804 989.9 805.9 C 998.8 807.7 1004.3 804.9 1006.8 803.1 C 1009.2 801.4 1010.7 799.2 1011 797.2 C 1011.2 795.2 1009.1 794.2 1005.5 792.7 C 1002.8 791.6 999.8 790.3 997.7 788.1 C 994.2 784.39 994.326 739.375 995.54 711.121 C 996.06 699.011 996.78 689.98 997.5 688.6 C 1000.3 683.3 1031.3 621.8 1031.3 615.5 C 1031.3 608.4 1058.6 563.8 1072.3 550.4 C 1072.8 550 1073.5 550 1073.9 550.4 C 1074.3 550.9 1074.3 551.6 1073.9 552 C 1059.8 565.8 1033.6 609.6 1033.6 615.4 C 1033.6 622.7 999.9 688.9 999.5 689.5 C 999.001 690.593 998.491 696.362 998.059 704.586 C 996.674 730.973 996.098 782.641 999.3 786.3 C 1001.1 788.2 1003.7 789.3 1006.3 790.3 C 1009.9 791.8 1013.7 793.3 1013.2 797.2 C 1012.9 799.8 1011 802.6 1008.1 804.7 C 1006.1 806.5 1001.9 808.7 995.6 808.7 Z" style="fill: rgb(240, 88, 72);"/>
    <path class="st1" d="M736.4,804.2c-0.5,0-1,0-1.6,0c-5.8-0.3-9.6-2.4-10.6-5.7c-2.1-7.3-3.1-58.7,26.4-83.3 c1.3-1.5,0.7-14.7,0.3-26.4c-0.6-15.7-1.4-35.3,0.5-48.3c1.8-11.8,5.1-24.3,7.7-34.3c2.3-8.7,4.9-18.6,4-20 c-0.5-0.7-4.3-2.2-8-3.7c-14.6-6-41.8-17.2-54.5-40.3c-14.9-27.1-19.9-65.6-15.3-70.7c0.7-0.8,1.6-1,2.6-0.6 c3.1,1.3,5.7,8.3,9.9,20.5c3.8,10.8,8.5,24.3,14.5,33.2c11.9,17.7,54.4,39.5,63,42.6c3.5,1.2,11.1-0.2,20.7-2.1 c15.1-2.9,35.7-6.9,59.3-4.7c37.1,3.4,90,1.5,106.6-6.8c16.1-8,41.9-26.5,42.2-26.7c0.5-0.4,1.2-0.3,1.6,0.3 c0.4,0.5,0.3,1.2-0.3,1.6c-0.3,0.2-26.3,18.7-42.5,26.9c-17.2,8.6-69.7,10.6-107.8,7.1c-23.3-2.2-43.8,1.8-58.7,4.6 c-10.3,2-17.8,3.4-21.9,2c-8.8-3.1-52-25.3-64.2-43.5c-6.2-9.2-11-22.8-14.8-33.8c-3.1-8.9-6.3-18.2-8.6-19.1 c-2.8,1.9-0.6,38.5,15.7,68c12.3,22.3,39,33.3,53.3,39.2c5.8,2.4,8.2,3.4,9,4.6c1.5,2.2-0.1,8.7-3.7,21.9 c-2.6,9.9-5.9,22.3-7.7,34c-1.9,12.8-1.1,32.3-0.5,47.9c0.8,19.2,0.9,26.6-1.1,28.2c-28.7,23.9-27.8,73.8-25.7,80.9 c0.7,2.3,3.8,3.8,8.5,4c6.1,0.4,12.5-1.6,13.5-4.2c1.2-2.8-1.5-4.6-5.5-6.9c-1.7-1-3.2-1.9-4.1-2.9c-2.6-3.4-2.6-18.4,5.4-31.9 c2.8-4.8,6.9-11.3,11.2-18.2c7.7-12.4,16.5-26.4,21.2-35.3c7.3-14,43.3-62,58-65.4c6.3-1.5,24.4,6.2,47.4,16 c30.7,13.1,68.9,29.3,90.2,27.9c0.6,0,1.2,0.4,1.2,1.1c0,0.6-0.4,1.2-1.1,1.2c-21.8,1.4-60.3-15-91.2-28.1 c-21.7-9.2-40.4-17.2-46-15.9c-13.8,3.2-49.5,50.8-56.5,64.2c-4.7,9-13.5,23.1-21.2,35.5c-4.3,6.9-8.4,13.4-11.2,18.2 c-7.9,13.4-7.2,27.2-5.5,29.3c0.5,0.7,2,1.5,3.4,2.3c3.6,2.1,8.5,4.9,6.5,9.7C749.1,802.2,742.5,804.2,736.4,804.2z" style="fill: rgb(240, 88, 72);"/>
  </g>
  <g transform="matrix(0.763847, 0, 0, 0.685236, -686.193176, -236.389572)">
    <path class="st0" d="M1725,555.8c-4.7-0.6-1.1,10.5,3.2,11.1s2.9-6.5,1.4-8.6C1727.8,555.7,1725,555.8,1725,555.8z" style="fill: rgb(255, 255, 255);"/>
    <path class="st1" d="M 1729.697 566.068 C 1729.426 566.068 1729.245 566.068 1728.974 566.068 C 1725.449 565.582 1722.827 560.312 1723.189 557.474 C 1723.46 555.934 1724.545 555.042 1726.262 555.204 C 1726.804 555.204 1729.426 555.366 1731.234 557.636 C 1732.319 558.933 1733.494 562.825 1732.047 564.852 C 1731.595 565.663 1730.692 566.068 1729.697 566.068 Z M 1725.81 556.988 C 1725.539 556.988 1725.358 557.15 1725.268 557.636 C 1724.906 559.744 1727.166 563.879 1729.245 564.122 C 1729.968 564.203 1730.149 564.041 1730.33 563.798 C 1731.053 562.663 1730.42 559.663 1729.516 558.69 C 1728.16 556.988 1726.353 556.988 1726.172 556.988 L 1726.172 556.988 L 1725.991 556.988 C 1725.991 557.069 1725.901 556.988 1725.81 556.988 Z" style="fill: rgb(240, 88, 72);"/>
  </g>
  <g transform="matrix(0.352903, 0, 0, 0.273964, -93.293037, 33.092209)" style="">
    <path class="st1" d="M 963.1 681.9 C 962.472 685.625 962.482 692.539 962.939 701.233 C 963.46 711.133 964.562 723.342 965.965 735.779 C 969.018 762.856 973.494 791.016 976.5 798.8 C 982.1 813.2 991.4 803.1 991.4 803.1 L 983.5 675 L 963.1 681.9 Z" style="stroke: rgb(240, 88, 72); fill: none; stroke-width: 1.73621px;"/>
    <path class="st1" d="M 984.5 807.6 C 984.1 807.6 983.6 807.6 983.2 807.5 C 980 806.9 977.4 804.1 975.5 799.1 C 969.8 784.5 959.2 698.7 962 681.6 L 962.1 680.9 L 984.6 673.2 L 992.6 803.3 L 992.3 803.7 C 992.1 804 988.7 807.6 984.5 807.6 Z M 964.1 682.7 C 962.961 691.083 964.499 712.852 967.032 735.423 C 970.059 762.396 974.506 790.515 977.5 798.3 C 979.1 802.5 981.1 804.8 983.5 805.2 C 986.4 805.8 989.2 803.4 990.1 802.5 L 982.3 676.4 L 964.1 682.7 Z" style="fill: none;"/>
    <path class="st1" d="M825.5,643.9c2.9,18-26.9,62.2-45.5,88.3s-24.2,37.2-24.7,45.2c-0.5,7.9,9.3,5.1,9.3,13s-24.7,3.3-24.7,3.3 s-8.4-0.9-7-22.3s60-105.2,60-105.2L825.5,643.9z" style="fill: none;"/>
    <path class="st1" d="M753.7,796.1c-6.2,0-12.7-1.2-13.9-1.4c-0.3,0-9.4-1.3-7.9-23.5c1.4-21.5,57.9-102.4,60.3-105.8l0.3-0.3 l33.9-23.2l0.3,1.8c2.2,13.6-13.1,43.6-45.7,89.1c-17.3,24.3-24,36.4-24.5,44.6c-0.2,3.3,1.5,4.2,3.9,5.5 c2.4,1.3,5.4,2.9,5.4,7.5c0,1.4-0.6,2.6-1.7,3.5C762,795.6,757.9,796.1,753.7,796.1z M793.9,666.9c-3,4.3-58.4,84.1-59.7,104.4 c-1.3,19.8,5.9,21.1,6,21.1c5,0.9,18.8,2.7,22.5-0.4c0.6-0.5,0.8-1,0.8-1.7c0-3.2-1.8-4.2-4.2-5.5c-2.4-1.3-5.4-2.9-5.1-7.6 c0.5-8.7,7.3-21.1,24.9-45.8c30.7-43,46-71.7,45.5-85.6L793.9,666.9z" style="fill: rgb(240, 88, 72);"/>
    <path class="st0" d="M971.6,674c2.1,10.9,4.5,130.2,18.2,133c13.6,2.7,21.8-4.5,22.4-9.7c0.6-5.1-9.1-5.1-13.6-10 c-4.5-4.8-2.1-94.2,0-98.1c2.1-3.9,33.9-66.9,33.9-73.6c0-6.7,27-50.9,40.6-64.3l-30.4-56.5l-40.2,34.8l-36.1,107.9L971.6,674z" style="fill: rgb(255, 255, 255);"/>
    <path class="st0" d="M1042.7,504.9c-6.2,7.9-10.8,48.2-18.7,44.2c-7.9-4-27.2-24.4-19.9-36.9c7.4-12.5,31.2-28.4,51.6-26.1 c20.4,2.3,48.8,26.5,61.3,34c5.4,3.3-1.7,32.3-11.3,32.9s-43.2-2.8-43.2-2.8" style="fill: rgb(255, 255, 255);"/>
    <path class="st1" d="M1103,554.3c-11.9,0-39.4-2.8-40.7-2.9c-0.6-0.1-1.1-0.6-1-1.3c0.1-0.6,0.6-1.1,1.3-1c0.3,0,33.6,3.4,43,2.8 c4.5-0.3,8.9-8.7,10.9-16.9c1.9-7.5,1.4-12.9-0.1-13.9c-3.1-1.9-7.2-4.8-11.9-8.2c-14.3-10.1-33.8-24-48.9-25.7 c-20.3-2.3-43.5,13.6-50.5,25.5c-1.7,2.9-1.9,6.5-0.7,10.7c3.1,10.6,14.8,21.9,20.1,24.6c0.4,0.2,0.7,0.2,1.1,0 c3.2-1.5,6.4-13.5,9-23.1c2.4-9,4.6-17.4,7.3-20.8c0.4-0.5,1.1-0.6,1.6-0.2c0.5,0.4,0.6,1.1,0.2,1.6c-2.4,3-4.7,11.7-6.9,20 c-3.1,11.7-6,22.7-10.2,24.6c-1,0.4-2,0.4-3-0.1c-6.4-3.2-18.1-15.2-21.3-26c-1.4-4.8-1.1-9,0.9-12.5c7.4-12.4,31.5-29,52.7-26.6 c15.6,1.7,35.5,15.8,49.9,26.1c4.7,3.3,8.7,6.2,11.8,8.1c3.3,2,2.8,9.8,1.1,16.4c-2.1,8.4-6.7,18.3-13,18.7 C1105,554.3,1104,554.3,1103,554.3z" style="fill: rgb(240, 88, 72);"/>
    <path class="st0" d="M972.4,682.2c-37.1,2.4-123.2-47.3-137.4-43.9s-50,50.9-57.2,64.8s-24.5,40.3-32.4,53.6 c-7.9,13.3-7.6,27.9-5.5,30.6c2.1,2.7,12.1,5.1,9.7,10.9c-2.4,5.8-22.1,7.3-24.2,0c-2.1-7.3-3.1-57.8,26-82.1 c3.6-3-2.4-50.9,1.2-75.4c3.6-24.5,13.9-51.5,11.5-55.1c-2.4-3.6-45.7-13.6-62.4-43.9s-20-72.1-14.2-69.7s12.1,35.7,23.9,53.3 c11.8,17.6,54.2,39.7,63.6,43c9.4,3.3,40.9-10.3,80.3-6.7c39.4,3.6,90.9,1.2,107.2-7s42.3-26.8,42.3-26.8" style="fill: rgb(255, 255, 255);"/>
    <path class="st1" d="M 995.6 808.7 C 993.8 808.7 991.8 808.5 989.6 808.1 C 979.4 806.1 975.4 753.1 972.3 699 C 971.6 686.6 971 676.9 970.5 674.2 C 970.4 673.6 970.8 673 971.4 672.9 C 972 672.8 972.6 673.2 972.7 673.8 C 973.2 676.6 973.8 685.9 974.5 698.9 C 976.5 733 980.6 804 989.9 805.9 C 998.8 807.7 1004.3 804.9 1006.8 803.1 C 1009.2 801.4 1010.7 799.2 1011 797.2 C 1011.2 795.2 1009.1 794.2 1005.5 792.7 C 1002.8 791.6 999.8 790.3 997.7 788.1 C 994.2 784.39 994.326 739.375 995.54 711.121 C 996.06 699.011 996.78 689.98 997.5 688.6 C 1000.3 683.3 1031.3 621.8 1031.3 615.5 C 1031.3 608.4 1058.6 563.8 1072.3 550.4 C 1072.8 550 1073.5 550 1073.9 550.4 C 1074.3 550.9 1074.3 551.6 1073.9 552 C 1059.8 565.8 1033.6 609.6 1033.6 615.4 C 1033.6 622.7 999.9 688.9 999.5 689.5 C 999.001 690.593 998.491 696.362 998.059 704.586 C 996.674 730.973 996.098 782.641 999.3 786.3 C 1001.1 788.2 1003.7 789.3 1006.3 790.3 C 1009.9 791.8 1013.7 793.3 1013.2 797.2 C 1012.9 799.8 1011 802.6 1008.1 804.7 C 1006.1 806.5 1001.9 808.7 995.6 808.7 Z" style="fill: rgb(240, 88, 72);"/>
    <path class="st1" d="M736.4,804.2c-0.5,0-1,0-1.6,0c-5.8-0.3-9.6-2.4-10.6-5.7c-2.1-7.3-3.1-58.7,26.4-83.3 c1.3-1.5,0.7-14.7,0.3-26.4c-0.6-15.7-1.4-35.3,0.5-48.3c1.8-11.8,5.1-24.3,7.7-34.3c2.3-8.7,4.9-18.6,4-20 c-0.5-0.7-4.3-2.2-8-3.7c-14.6-6-41.8-17.2-54.5-40.3c-14.9-27.1-19.9-65.6-15.3-70.7c0.7-0.8,1.6-1,2.6-0.6 c3.1,1.3,5.7,8.3,9.9,20.5c3.8,10.8,8.5,24.3,14.5,33.2c11.9,17.7,54.4,39.5,63,42.6c3.5,1.2,11.1-0.2,20.7-2.1 c15.1-2.9,35.7-6.9,59.3-4.7c37.1,3.4,90,1.5,106.6-6.8c16.1-8,41.9-26.5,42.2-26.7c0.5-0.4,1.2-0.3,1.6,0.3 c0.4,0.5,0.3,1.2-0.3,1.6c-0.3,0.2-26.3,18.7-42.5,26.9c-17.2,8.6-69.7,10.6-107.8,7.1c-23.3-2.2-43.8,1.8-58.7,4.6 c-10.3,2-17.8,3.4-21.9,2c-8.8-3.1-52-25.3-64.2-43.5c-6.2-9.2-11-22.8-14.8-33.8c-3.1-8.9-6.3-18.2-8.6-19.1 c-2.8,1.9-0.6,38.5,15.7,68c12.3,22.3,39,33.3,53.3,39.2c5.8,2.4,8.2,3.4,9,4.6c1.5,2.2-0.1,8.7-3.7,21.9 c-2.6,9.9-5.9,22.3-7.7,34c-1.9,12.8-1.1,32.3-0.5,47.9c0.8,19.2,0.9,26.6-1.1,28.2c-28.7,23.9-27.8,73.8-25.7,80.9 c0.7,2.3,3.8,3.8,8.5,4c6.1,0.4,12.5-1.6,13.5-4.2c1.2-2.8-1.5-4.6-5.5-6.9c-1.7-1-3.2-1.9-4.1-2.9c-2.6-3.4-2.6-18.4,5.4-31.9 c2.8-4.8,6.9-11.3,11.2-18.2c7.7-12.4,16.5-26.4,21.2-35.3c7.3-14,43.3-62,58-65.4c6.3-1.5,24.4,6.2,47.4,16 c30.7,13.1,68.9,29.3,90.2,27.9c0.6,0,1.2,0.4,1.2,1.1c0,0.6-0.4,1.2-1.1,1.2c-21.8,1.4-60.3-15-91.2-28.1 c-21.7-9.2-40.4-17.2-46-15.9c-13.8,3.2-49.5,50.8-56.5,64.2c-4.7,9-13.5,23.1-21.2,35.5c-4.3,6.9-8.4,13.4-11.2,18.2 c-7.9,13.4-7.2,27.2-5.5,29.3c0.5,0.7,2,1.5,3.4,2.3c3.6,2.1,8.5,4.9,6.5,9.7C749.1,802.2,742.5,804.2,736.4,804.2z" style="fill: rgb(240, 88, 72);"/>
  </g>
  <g transform="matrix(0.606353, 0, 0, 0.480703, -748.734314, -92.626648)">
    <path class="st0" d="M1725,555.8c-4.7-0.6-1.1,10.5,3.2,11.1s2.9-6.5,1.4-8.6C1727.8,555.7,1725,555.8,1725,555.8z" style="fill: rgb(255, 255, 255);"/>
    <path class="st1" d="M 1729.697 566.068 C 1729.426 566.068 1729.245 566.068 1728.974 566.068 C 1725.449 565.582 1722.827 560.312 1723.189 557.474 C 1723.46 555.934 1724.545 555.042 1726.262 555.204 C 1726.804 555.204 1729.426 555.366 1731.234 557.636 C 1732.319 558.933 1733.494 562.825 1732.047 564.852 C 1731.595 565.663 1730.692 566.068 1729.697 566.068 Z M 1725.81 556.988 C 1725.539 556.988 1725.358 557.15 1725.268 557.636 C 1724.906 559.744 1727.166 563.879 1729.245 564.122 C 1729.968 564.203 1730.149 564.041 1730.33 563.798 C 1731.053 562.663 1730.42 559.663 1729.516 558.69 C 1728.16 556.988 1726.353 556.988 1726.172 556.988 L 1726.172 556.988 L 1725.991 556.988 C 1725.991 557.069 1725.901 556.988 1725.81 556.988 Z" style="fill: rgb(240, 88, 72);"/>
  </g>
</svg>