<?xml version="1.0" encoding="utf-8"?>
<!-- Generator: Adobe Illustrator 25.0.0, SVG Export Plug-In . SVG Version: 6.00 Build 0)  -->
<svg version="1.1" xmlns="http://www.w3.org/2000/svg" x="0px" y="0px"
	 viewBox="0 0 2000 1080" style="enable-background:new 0 0 2000 1080;" xml:space="preserve">
<style type="text/css">
	.st0{fill:#FFFFFF;}
	.st1{fill:#F05848;}
</style>
<g id="Layer_1">
	<g>
		<g>
			<path class="st0" d="M920.8,590.7c29.5,7,58.7-3.5,79.8-10.5c21.1-7,69-24.6,108.8-24.6l5.4-24.4c0,0-167.2-57.9-181.2-50.6
				C919.7,487.9,920.8,590.7,920.8,590.7z"/>
			<path class="st1" d="M941.2,594.1c-6.8,0-13.7-0.7-20.7-2.3c-0.6-0.1-1-0.8-0.9-1.4c0.1-0.6,0.8-1,1.4-0.9
				c27.9,6.7,56-2.7,76.5-9.6l2.7-0.9c1.8-0.6,3.9-1.3,6.1-2c23.3-7.9,66.6-22.6,103.1-22.6c0.6,0,1.2,0.5,1.2,1.2
				c0,0.6-0.5,1.2-1.2,1.2c-36.1,0-79.2,14.6-102.4,22.5c-2.2,0.7-4.2,1.4-6.1,2l-2.7,0.9C982.6,587.4,962.5,594.1,941.2,594.1z"/>
			<path class="st1" d="M871.3,557.9c1.8,23.4,6.5,67.9,13.5,79.6c7,11.7,7,65.5,2.3,65.5c-4.7,0-16.4,11.7-18.7,21.1
				s25.7,4.7,25.7,4.7s18.7-2.3,18.7-35.1c0-32.8-9.4-112.3-9.4-112.3l-23.4-30.4L871.3,557.9z"/>
			<path class="st1" d="M880.6,731.1c-5.1,0-10.2-0.7-12.3-3c-1.1-1.2-1.4-2.7-1-4.3c2.4-9.6,14.1-21.7,19.7-21.9
				c3.3-3.5,3.7-52.4-3.1-63.8c-7.9-13.2-12.5-64.6-13.7-80.1l-0.1-0.6l10.3-8.1l24.3,31.6l0,0.3c0.1,0.8,9.4,80,9.4,112.5
				c0,33.4-18.9,36.2-19.7,36.3C893.1,730.1,886.8,731.1,880.6,731.1z M872.5,558.4c2.5,31.4,7.3,68.4,13.3,78.4
				c6.7,11.2,7.1,59.2,3.3,65.9c-0.6,1.1-1.4,1.4-1.9,1.4c-4,0-15.4,11.3-17.6,20.2c-0.3,1.2,0.1,1.8,0.4,2.2c3.3,3.6,18.4,2,24,1.1
				c0.8-0.1,17.7-2.7,17.7-34c0-31.3-8.7-106.3-9.3-111.9l-22.5-29.2L872.5,558.4z"/>
			<path class="st1" d="M1172.9,638.2c13.8,15.6,32.5,29.7,32.5,41.4s2.3,28.1-4.7,28.1s-14,11.7-14,16.4s28.1,2.3,28.1,2.3
				s9.5,2.3,11.7-30.4c2.3-35.1-23.4-35.1-30.4-39.8C1189,651.5,1172.9,638.2,1172.9,638.2z"/>
			<path class="st1" d="M1201,728.2c-6.3,0-12.6-0.5-14.6-2.3c-0.7-0.6-0.8-1.3-0.8-1.8c0-4.9,7.2-17.6,15.2-17.6
				c0.7,0,1.3-0.2,1.8-0.7c2.5-2.6,2.2-11.2,1.9-18.8c-0.1-2.5-0.2-5.1-0.2-7.4c0-7.9-9.6-17.5-19.8-27.6c-4.2-4.2-8.5-8.5-12.5-13
				l1.6-1.7c0.2,0.1,16.2,13.3,23.1,17.9c1.3,0.9,3.4,1.6,5.8,2.4c10.1,3.5,27.1,9.4,25.1,38.4c-1.4,20.5-5.7,27.8-9.1,30.3
				c-1.8,1.3-3.3,1.3-3.8,1.2C1212.6,727.8,1206.8,728.2,1201,728.2z M1186.2,650.3c11,11,20.4,20.4,20.4,29.3
				c0,2.3,0.1,4.8,0.2,7.3c0.3,8.8,0.6,17.2-2.6,20.5c-0.9,1-2.1,1.5-3.5,1.5c-6.3,0-12.9,11.3-12.9,15.2c0.7,1.7,13.3,2.3,26.8,1.2
				l0.2,0l0.2,0l0,0c0,0,1,0.1,2.3-0.9c2.4-1.9,6.6-8.1,8-28.4c1.8-27.2-13.5-32.5-23.6-36c-2.6-0.9-4.8-1.7-6.3-2.7
				C1193,655.6,1189.6,653,1186.2,650.3z"/>
			<path class="st0" d="M938.6,499.4c0,7-9.4,16.4-9.4,35.1c0,18.7-4.7,91.3-4.7,103s4.7,53.8,2.3,65.5s-9.4,28.1-14,32.8
				c-4.7,4.7-25.7,2.3-28.1,0s0-14,9.4-18.7c9.4-4.7,9.4,2.3,11.7-30.4s-7-46.8-9.4-58.5s-4.7-53.8-14-60.8
				c-9.4-7-39.8-35.1-44.5-51.5c-4.7-16.4-4.7-42.1-11.7-65.5c-7-23.4-14-25.7-21.1-37.4l65.5-23.4c2.3,13.3,37.2,36.3,44.5,42.1
				c11.7,9.4,37.4,23.4,49.1,25.7c9.7,1.9,137,9.4,161.5,9.4c7,0,29.2-1.2,53.8,23.4c14,14,24.5,46.4,28.1,58.5
				c7,23.4,58.5,77.2,56.2,77.2s-35.1-18.7-46.8-25.7c-11.7-7-31.8-25.2-32.8-44.5"/>
			<path class="st1" d="M900.7,739.6c-7.3,0-15.1-1.4-16.7-3c-1.1-1.1-1.4-3.3-1-6c0.8-4.7,4-11.3,10.7-14.6
				c1.8-0.9,3.2-1.4,4.4-1.8c4.6-1.5,4.8-1.6,6.7-27.7c1.7-24.1-3-38.1-6.4-48.3c-1.2-3.7-2.3-6.8-2.9-9.9
				c-0.6-2.9-1.2-7.8-1.9-13.3c-2-16.7-5.1-41.8-11.7-46.8c-10.5-7.9-40.2-35.9-44.9-52.1c-2.1-7.4-3.3-16.7-4.5-26.6
				c-1.5-12.2-3.3-26-7.2-38.9c-4.8-16-9.5-21.8-14.4-28c-2.1-2.7-4.4-5.5-6.6-9.2l-0.7-1.2l68.2-24.4l0.2,1.4
				c1.9,10.5,26.3,28.4,38,36.9c2.7,1.9,4.8,3.5,6,4.5c11.5,9.2,37.1,23.2,48.6,25.5c9.6,1.9,137.7,9.3,161.3,9.3l0.9,0
				c8.2,0,29.8-0.2,53.7,23.8c13.3,13.3,23.5,42.7,28.4,59c4.9,16.2,31.8,47.7,46.3,64.7c10.4,12.2,10.4,12.3,9.9,13.3l-0.3,0.7
				l-0.8,0c-3.3,0-43.2-23.4-47.4-25.9c-12.9-7.7-32.4-26.2-33.3-45.4c0-0.6,0.5-1.2,1.1-1.2c0.7-0.1,1.2,0.5,1.2,1.1
				c0.9,18.3,19.8,36.1,32.2,43.5c11.4,6.9,34.5,20,43.1,24.2c-1.8-2.2-4.6-5.5-7.5-8.8c-14.6-17.1-41.7-48.9-46.7-65.5
				c-4.8-16.1-14.9-45.1-27.8-58c-23.3-23.3-44.2-23.1-52.1-23.1l-0.9,0c-24.7,0-151.6-7.4-161.7-9.4c-12.1-2.4-37.9-16.5-49.7-26
				c-1.3-1-3.3-2.5-6-4.4c-12.4-9-35.1-25.6-38.6-37.1L807,413.4c1.9,3,3.8,5.4,5.6,7.7c4.8,6.1,9.9,12.4,14.8,28.8
				c3.9,13.1,5.7,27,7.2,39.3c1.2,9.8,2.4,19,4.5,26.2c4.5,15.7,33.7,43.1,44,50.9c7.4,5.6,10.5,30.3,12.7,48.4
				c0.7,5.5,1.3,10.3,1.8,13.2c0.6,2.9,1.6,6,2.8,9.6c3.5,10.4,8.3,24.6,6.5,49.2c-1.9,26.6-2.2,27.7-8.3,29.8
				c-1.1,0.4-2.5,0.8-4.1,1.6c-5.9,2.9-8.7,8.8-9.4,12.9c-0.4,2.5,0.1,3.7,0.3,4c1.7,1.7,22.2,4.2,26.4,0
				c4.5-4.5,11.4-20.7,13.7-32.2c1.5-7.6,0-28.4-1.2-45.1c-0.6-8.7-1.2-16.2-1.2-20.2c0-5.2,0.9-21.9,1.9-41.3
				c1.3-24,2.7-51.3,2.7-61.7c0-11.9,3.7-20.1,6.4-26.2c1.6-3.6,2.9-6.5,2.9-8.9c0-0.6,0.5-1.2,1.2-1.2s1.2,0.5,1.2,1.2
				c0,2.9-1.4,6-3.1,9.9c-2.8,6.2-6.2,13.9-6.2,25.2c0,10.5-1.5,37.8-2.8,61.8c-1,19.3-1.9,36-1.9,41.2c0,3.9,0.5,11.4,1.2,20
				c1.2,16.9,2.7,37.9,1.2,45.8c-2.4,12-9.5,28.5-14.4,33.4C911.5,738.8,906.2,739.6,900.7,739.6z"/>
			<path class="st0" d="M1111.8,527.5c-7,11.7,0,49.1,4.7,60.8c4.7,11.7,35.1,30.4,60.8,53.8s44.5,32.8,44.5,39.8
				c0,7,0,35.1-4.7,35.1s-11.7,7-11.7,14c0,7,25.7,7,28.1,2.3c2.3-4.7,9.4-18.7,9.4-35.1c0-16.4,0-32.8-9.4-39.8
				c-9.4-7-44.5-44.5-49.1-63.2c-4.7-18.7,7-58.5-2.3-74.9"/>
			<path class="st1" d="M1220.8,737.9c-3.3,0-6.6-0.3-9.2-0.9c-6.1-1.4-7.3-4-7.3-5.8c0-7.5,7.5-15.2,12.9-15.2
				c0.4-0.1,3.5-1.8,3.5-33.9c0-3.5-6.5-8.5-16.3-16c-7.6-5.8-17-13.1-27.8-22.9c-10-9.1-20.8-17.5-30.3-25
				c-15.6-12.2-27.9-21.8-30.9-29.3c-4.8-12-11.9-49.8-4.6-61.9c0.3-0.6,1.1-0.7,1.6-0.4c0.6,0.3,0.7,1.1,0.4,1.6
				c-6.6,11.1-0.1,47.7,4.8,59.8c2.7,6.9,15.4,16.8,30.2,28.3c9.5,7.5,20.4,16,30.4,25.1c10.7,9.7,20.1,17,27.7,22.8
				c11.1,8.5,17.2,13.2,17.2,17.9c0,32-3,36.3-5.9,36.3c-3.9,0-10.5,6.4-10.5,12.9c0,1.4,2,2.7,5.5,3.6c7.9,1.9,19.2,0.5,20.3-1.7
				c2.3-4.6,9.2-18.5,9.2-34.6c0-15.8,0-32.2-8.9-38.8c-9.7-7.3-44.9-45-49.6-63.8c-2.1-8.3-1-20.3,0.1-33
				c1.4-16.1,2.8-32.7-2.3-41.6c-0.3-0.6-0.1-1.3,0.4-1.6c0.6-0.3,1.3-0.1,1.6,0.4c5.5,9.6,4,26.6,2.6,43
				c-1.1,12.5-2.1,24.3-0.1,32.2c4.6,18.4,39.2,55.4,48.7,62.5c9.8,7.4,9.8,24.3,9.8,40.7c0,16.7-7.1,30.9-9.5,35.6
				C1233.2,736.7,1227,737.9,1220.8,737.9z"/>
			<path class="st0" d="M840.3,366c0,0-7,46.8,4.7,46.8s25.7-18.7,25.7-23.4c0-4.7-11.7-49.1-44.5-49.1s-42.1,21.1-49.1,28.1
				s-30.4,9.4-32.8,18.7c-2.3,9.4,14,32.8,18.7,35.1c4.7,2.3,50.1,5,75.8-16.1"/>
			<path class="st1" d="M778.7,424.9c-8.3,0-14.4-0.9-16.1-1.7c-5.1-2.6-21.8-26.6-19.3-36.4c1.5-6,10.3-9.2,18.8-12.3
				c5.7-2.1,11.6-4.2,14.3-7c1.2-1.2,2.5-2.9,4-4.8c6.9-8.8,18.5-23.6,46-23.6c34.1,0,45.6,46.2,45.6,50.3
				c0,5.7-14.9,24.6-26.9,24.6c-1.6,0-3-0.7-4.1-2c-0.9-1-1.6-2.5-2.2-4.3C821.2,421.5,795.4,424.9,778.7,424.9z M826.3,341.4
				c-26.4,0-37.1,13.7-44.1,22.7c-1.5,2-2.9,3.7-4.2,5c-3.1,3.1-9,5.3-15.2,7.5c-7.9,2.9-16.1,5.8-17.3,10.7
				c-2.2,8.7,13.8,31.6,18.1,33.8c4.6,2.3,49.4,4.6,74.5-15.9c-2.8-13.4,0.9-38.2,1-39.4c0.1-0.6,0.7-1.1,1.3-1
				c0.6,0.1,1.1,0.7,1,1.3c-1.5,10.2-4.3,37.9,1.2,44.3c0.7,0.8,1.4,1.2,2.3,1.2c11.1,0,24.6-18.3,24.6-22.2
				C869.6,385.5,858.6,341.4,826.3,341.4z"/>
			<path class="st0" d="M744.4,382.4c4.7-2.3,9.4-2.3,9.4,4.7s-7,11.7-9.4,9.4C742,394.1,739.7,384.7,744.4,382.4z"/>
			<path class="st1" d="M746,398.2c-1,0-1.8-0.3-2.4-1c-1.9-1.9-3.5-7.1-2.9-11.1c0.4-2.3,1.5-4,3.2-4.9c3.5-1.7,6.3-2,8.3-0.8
				c1.8,1.1,2.7,3.3,2.7,6.5c0,5.2-3.4,9.3-6.7,10.7C747.4,398,746.7,398.2,746,398.2z M749.3,382.1c-1.2,0-2.7,0.4-4.4,1.3
				c-1,0.5-1.7,1.6-1.9,3.1c-0.6,3.4,1,7.7,2.2,9c0.4,0.4,1.1,0.4,2.1,0c2.6-1.1,5.3-4.4,5.3-8.5c0-2.3-0.5-3.8-1.6-4.5
				C750.5,382.3,750,382.1,749.3,382.1z"/>
			<path class="st1" d="M868.4,484.2c-0.1,0-0.3,0-0.4-0.1c-0.6-0.2-0.9-0.9-0.7-1.5c4.8-12,21-19.1,21.7-19.4
				c0.6-0.3,1.3,0,1.5,0.6c0.3,0.6,0,1.3-0.6,1.5c-0.2,0.1-16,7-20.4,18.1C869.3,483.9,868.9,484.2,868.4,484.2z"/>
			<path class="st1" d="M1111.8,507.6c-0.4,0-0.7-0.2-0.9-0.5c-0.2-0.2-4-5.5-6-10.8c-0.2-0.6,0.1-1.3,0.7-1.5
				c0.6-0.2,1.3,0.1,1.5,0.7c1.9,5.1,5.7,10.2,5.7,10.2c0.4,0.5,0.3,1.3-0.2,1.6C1112.3,507.5,1112.1,507.6,1111.8,507.6z"/>
			<path class="st1" d="M1142.2,561.4c-0.2,0-0.4-0.1-0.6-0.2c-3.5-2.1-6.4-11.7-6.4-20.9c0-0.6,0.5-1.2,1.2-1.2
				c0.6,0,1.2,0.5,1.2,1.2c0,8.8,2.8,17.4,5.3,18.9c0.6,0.3,0.7,1.1,0.4,1.6C1143,561.2,1142.6,561.4,1142.2,561.4z"/>
			<path class="st1" d="M791.2,395.2c-0.4,0-0.7-0.2-1-0.5c-0.4-0.5-0.2-1.3,0.3-1.6c7.2-4.8,16.6-4.9,17-4.9c0.6,0,1.2,0.5,1.2,1.2
				c0,0.6-0.5,1.2-1.2,1.2c-0.1,0-9.1,0.1-15.7,4.5C791.6,395.2,791.4,395.2,791.2,395.2z"/>
			<path class="st1" d="M1024.5,546.2c-0.1,0-0.1,0-0.2,0c-0.6-0.1-1.1-0.7-1-1.3c0-0.3,3.9-27.9,0.1-36.8c-0.3-0.6,0-1.3,0.6-1.5
				c0.6-0.3,1.3,0,1.5,0.6c4,9.5,0.2,36.9,0.1,38.1C1025.6,545.8,1025.1,546.2,1024.5,546.2z"/>
			<path class="st1" d="M1036.9,535.7c-0.1,0-0.1,0-0.2,0c-0.6-0.1-1.1-0.7-0.9-1.4c0.7-3.9,2.2-15,0.1-19.2
				c-0.3-0.6-0.1-1.3,0.5-1.6c0.6-0.3,1.3-0.1,1.6,0.5c2.9,5.7,0.2,20,0.1,20.6C1038,535.3,1037.5,535.7,1036.9,535.7z"/>
			<path class="st1" d="M1049.8,550.9c-0.2,0-0.4-0.1-0.6-0.2c-0.6-0.3-0.8-1-0.4-1.6c4.4-7.6,35.4-24,45.5-24
				c0.6,0,1.2,0.5,1.2,1.2s-0.5,1.2-1.2,1.2c-10.1,0-39.7,16.4-43.5,22.8C1050.6,550.7,1050.2,550.9,1049.8,550.9z"/>
		</g>
		<g>
			<path class="st1" d="M275.5,557.9c1.8,23.4,6.5,67.9,13.5,79.6c7,11.7,7,65.5,2.3,65.5s-16.4,11.7-18.7,21.1
				c-2.3,9.4,25.7,4.7,25.7,4.7s18.7-2.3,18.7-35.1s-9.4-112.3-9.4-112.3l-23.4-30.4L275.5,557.9z"/>
			<path class="st1" d="M284.8,731.1c-5.1,0-10.2-0.7-12.3-3c-1.1-1.2-1.4-2.7-1-4.3c2.4-9.6,14.1-21.7,19.7-21.9
				c3.3-3.5,3.7-52.4-3.1-63.8c-7.9-13.2-12.5-64.6-13.7-80.1l0-0.6l10.3-8.1l24.3,31.6l0,0.3c0.1,0.8,9.4,80,9.4,112.5
				c0,33.4-18.9,36.2-19.7,36.3C297.4,730.1,291.1,731.1,284.8,731.1z M276.7,558.4c2.5,31.4,7.3,68.4,13.3,78.4
				c6.7,11.2,7.1,59.2,3.3,65.9c-0.6,1.1-1.4,1.4-1.9,1.4c-4,0-15.4,11.3-17.6,20.2c-0.3,1.2,0.1,1.8,0.4,2.2c3.3,3.6,18.4,2,24,1.1
				c0.8-0.1,17.7-2.7,17.7-34c0-31.3-8.7-106.3-9.3-111.9l-22.5-29.2L276.7,558.4z"/>
			<path class="st1" d="M584.1,638.2c13.8,15.6,25.5,29.7,25.5,41.4s2.3,28.1-4.7,28.1s-14,11.7-14,16.4c0,4.7,28.1,2.3,28.1,2.3
				s11.7,2.3,11.7-30.4s-14-42.1-21.1-46.8C602.7,644.5,584.1,638.2,584.1,638.2z"/>
			<path class="st1" d="M605.2,728.2c-6.3,0-12.6-0.5-14.6-2.3c-0.7-0.6-0.8-1.3-0.8-1.8c0-4.9,7.2-17.6,15.2-17.6
				c0.7,0,1.3-0.2,1.8-0.7c2.5-2.6,2.2-11.2,1.9-18.8c-0.1-2.5-0.2-5.1-0.2-7.4c0-11.1-11.4-25-25.2-40.6l-2.9-3.3l4.2,1.4
				c0.8,0.3,18.7,6.4,25.8,11.1c7,4.7,21.6,14.4,21.6,47.8c0,19.4-4.2,26.9-7.6,29.8c-2.4,2-4.6,1.9-5.3,1.8
				C616.9,727.8,611.1,728.2,605.2,728.2z M588,640.8c13.1,15,22.8,27.6,22.8,38.8c0,2.3,0.1,4.8,0.2,7.3c0.3,8.8,0.6,17.2-2.6,20.5
				c-0.9,1-2.1,1.5-3.5,1.5c-6.3,0-12.9,11.3-12.9,15.2c0.7,1.7,13.3,2.3,26.8,1.2l0.2,0l0.2,0c0.1,0,1.7,0.3,3.6-1.4
				c3.1-2.6,6.7-9.5,6.7-27.9c0-32.1-13.4-41-20.5-45.8C604.2,647,593.9,643,588,640.8z"/>
			<path class="st0" d="M518.4,543.9c-39.8,0-88.9,25.7-110,32.8c-21.1,7-60.8,7-83.3,4.5c0,0-5.5-53.6-0.8-63
				c4.7-9.4,11.7-23.4,14-23.4c2.3,0,191.9,23.4,191.9,23.4L518.4,543.9z"/>
			<path class="st1" d="M355.9,583.8c-11.6,0-22.7-0.6-31-1.6c-0.6-0.1-1.1-0.7-1-1.3c0.1-0.6,0.6-1.1,1.3-1
				c21.6,2.4,61.5,2.7,82.8-4.4c5.1-1.7,11.9-4.5,19.8-7.8c24-10,60.2-25,90.5-25c0.6,0,1.2,0.5,1.2,1.2c0,0.6-0.5,1.2-1.2,1.2
				c-29.8,0-65.8,14.9-89.6,24.8c-7.9,3.3-14.8,6.1-20,7.9C395.4,582.2,374.8,583.8,355.9,583.8z"/>
			<path class="st0" d="M333.5,506.4c0,7-7,21.1-7,39.8c0,18.7-4.7,86.6-4.7,98.3s11.7,44.5,9.4,56.2c-2.3,11.7-11.7,28.1-16.4,32.8
				c-4.7,4.7-23.4,4.7-25.7,2.3c-2.3-2.3,0-14,9.4-18.7c9.4-4.7,9.4,2.3,11.7-30.4c2.3-32.8-7-46.8-9.4-58.5
				c-2.3-11.7-4.7-53.8-14-60.8c-9.4-7-25.7-21.1-30.4-37.4c-4.7-16.4-4.7-46.8-11.7-70.2c-7-23.4-21.1-51.5-32.8-49.1l63.2-22.7
				c4.7,7.7,46.8,60.1,56.2,60.1c9.4,0,35.1,9.4,42.1,16.4c7,7,103,7,119.4,9.4c16.4,2.3,42.1,0,74.9,18.7
				c32.8,18.7,37.4,51.5,44.5,70.2c7,18.7,58.5,58.5,56.2,58.5c-2.3,0-35.1-16.4-46.8-23.4c-11.7-7-35.1-30.4-36.1-49.7"/>
			<path class="st1" d="M298.3,738.5c-4.7,0-8.8-0.7-10.1-1.9c-1.1-1.1-1.4-3.3-1-6c0.8-4.7,4-11.3,10.7-14.6
				c1.8-0.9,3.2-1.4,4.4-1.8c4.6-1.5,4.8-1.6,6.7-27.7c1.7-24.1-3-38.1-6.4-48.3c-1.2-3.7-2.3-6.8-2.9-9.9
				c-0.6-2.9-1.2-7.8-1.9-13.3c-2-16.7-5.1-41.8-11.7-46.8c-11.6-8.7-26.4-22.4-30.8-38.1c-2.1-7.4-3.3-17.7-4.5-28.6
				c-1.5-13.5-3.3-28.7-7.2-41.6c-7.6-25.3-21.4-50.3-31.4-48.3l-0.6-2.2l64.1-23l0.5,0.8c5,8.3,46.7,59.6,55.2,59.6
				c9.7,0,35.7,9.5,43,16.7c4.3,4.3,50.7,6,81.3,7.1c17.1,0.6,31.8,1.1,37.4,1.9c3.4,0.5,7.2,0.8,11.3,1.1c16,1.2,37.8,2.8,64,17.8
				c27.5,15.7,35.6,41.4,41.4,60.1c1.2,3.9,2.4,7.5,3.5,10.7c4.9,13.1,32.2,36.9,46.9,49.7c9.8,8.5,9.8,8.6,9.4,9.6l-0.3,0.8l-0.9,0
				c-3,0-37.1-17.4-47.4-23.6c-12.3-7.4-35.7-31.2-36.6-50.7c0-0.6,0.5-1.2,1.1-1.2c0.7,0,1.2,0.5,1.2,1.1
				c0.9,18.6,23.6,41.6,35.5,48.8c9.6,5.7,31.8,17,41.6,21.4c-1.5-1.3-3.3-2.9-5.1-4.5c-14.8-12.9-42.4-37-47.5-50.6
				c-1.2-3.2-2.4-6.9-3.6-10.8c-5.8-18.4-13.6-43.5-40.4-58.8c-25.7-14.7-47.3-16.3-63-17.5c-4.1-0.3-8-0.6-11.5-1.1
				c-5.5-0.8-20.1-1.3-37.1-1.9c-44.1-1.6-78.3-3.2-82.9-7.8c-6.8-6.8-32.2-16-41.3-16c-10.1,0-50.5-50.8-56.6-59.9l-57.7,20.7
				c11.6,4.7,23.3,30.6,28.9,49.4c3.9,13.1,5.7,28.4,7.2,42c1.2,10.8,2.4,21,4.5,28.2c4.3,15.1,18.7,28.3,30,36.8
				c7.4,5.6,10.5,30.3,12.7,48.4c0.7,5.5,1.3,10.3,1.8,13.2c0.6,2.9,1.6,6,2.8,9.6c3.5,10.4,8.3,24.6,6.5,49.2
				c-1.9,26.6-2.2,27.7-8.3,29.8c-1.1,0.4-2.5,0.8-4.1,1.6c-5.9,2.9-8.7,8.8-9.4,12.9c-0.4,2.5,0.1,3.7,0.3,4
				c1.8,1.8,19.8,2,24.1-2.3c4.8-4.8,13.8-21.1,16.1-32.2c1.3-6.5-2-20.3-5-32.6c-2.3-9.4-4.4-18.3-4.4-23.4c0-5.2,0.9-21,1.9-39.3
				c1.3-22.7,2.7-48.5,2.7-58.9c0-11.8,2.8-21.8,4.8-29.2c1.2-4.5,2.2-8.1,2.2-10.6c0-0.6,0.5-1.2,1.2-1.2c0.6,0,1.2,0.5,1.2,1.2
				c0,2.8-1,6.5-2.3,11.2c-2,7.2-4.7,17.1-4.7,28.6c0,10.5-1.5,36.3-2.8,59.1c-1,18.3-1.9,34.1-1.9,39.2c0,4.8,2.1,13.6,4.3,22.8
				c3.1,13.1,6.4,26.6,5,33.6c-2.4,11.9-11.8,28.4-16.7,33.4C312.7,737.2,304.9,738.5,298.3,738.5z"/>
			<path class="st0" d="M242.2,366c0,0-4.7,44.5,7,44.5s25.7-16.4,25.7-21.1c0-4.7-11.7-49.1-44.5-49.1s-42.1,21.1-49.1,28.1
				c-7,7-30.4,9.4-32.8,18.7c-2.3,9.4,11.7,25.7,16.4,28.1c4.7,2.3,29.4-1.1,78.5-8.2"/>
			<path class="st1" d="M170.7,417c-3.1,0-5.1-0.3-6.2-0.8c-5.1-2.6-19.5-19.4-17-29.4c1.5-6,10.3-9.2,18.8-12.3
				c5.7-2.1,11.6-4.2,14.3-7c1.2-1.2,2.5-2.9,4-4.8c6.9-8.8,18.5-23.6,46-23.6c34.1,0,45.6,46.2,45.6,50.3
				c0,5.3-14.6,22.2-26.9,22.2c-1.6,0-3.1-0.7-4.3-2c-0.4-0.4-0.8-0.9-1.1-1.5c-0.1,0-0.1,0-0.2,0C203.1,413.9,180.9,417,170.7,417z
				 M230.5,341.4c-26.4,0-37.1,13.7-44.1,22.7c-1.5,2-2.9,3.7-4.2,5c-3.1,3.1-9,5.3-15.2,7.5c-7.9,2.9-16.1,5.8-17.3,10.7
				c-2.2,8.6,11.3,24.5,15.8,26.8c4.4,2.2,31.8-1.7,77.3-8.2c-4.6-11.9-1.9-38.7-1.7-40c0.1-0.6,0.7-1.1,1.3-1
				c0.6,0.1,1.1,0.6,1,1.3c-1,9.5-2.4,35.6,3.3,41.9c0.8,0.8,1.6,1.3,2.6,1.3c11.1,0,24.6-16,24.6-19.9
				C273.8,385.5,262.9,341.4,230.5,341.4z"/>
			<path class="st0" d="M148.6,382.4c4.7-2.3,9.4-2.3,9.4,4.7s-7,11.7-9.4,9.4C146.3,394.1,143.9,384.7,148.6,382.4z"/>
			<path class="st1" d="M150.2,398.2c-1,0-1.8-0.3-2.4-1c-1.9-1.9-3.5-7.1-2.9-11.1c0.4-2.3,1.5-4,3.2-4.9c3.5-1.7,6.4-2,8.3-0.8
				c1.8,1.1,2.7,3.3,2.7,6.5c0,5.2-3.4,9.3-6.7,10.7C151.7,398,150.9,398.2,150.2,398.2z M153.5,382.1c-1.2,0-2.7,0.4-4.4,1.3
				c-1,0.5-1.7,1.6-1.9,3.1c-0.5,3.4,1,7.7,2.2,9c0.4,0.4,1.1,0.4,2.1,0c2.6-1.1,5.3-4.4,5.3-8.5c0-2.3-0.5-3.8-1.6-4.5
				C154.8,382.3,154.2,382.1,153.5,382.1z"/>
			<path class="st0" d="M520.7,527.5c-7,11.7,0,49.1,4.7,60.8s37.4,30.4,63.2,53.8c25.7,23.4,37.4,37.4,37.4,44.5
				c0,7,0,30.4-4.7,30.4c-4.7,0-11.7,7-11.7,14c0,7,25.7,7,28.1,2.3c2.3-4.7,9.4-18.7,9.4-35.1c0-16.4,0-32.8-9.4-39.8
				c-9.4-7-44.5-44.5-49.1-63.2c-4.7-18.7,0-60.8-9.4-77.2"/>
			<path class="st1" d="M625,737.9c-3.3,0-6.6-0.3-9.2-0.9c-6.1-1.4-7.3-4-7.3-5.8c0-7.5,7.5-15.2,12.9-15.2c0.4,0,3.5-0.8,3.5-29.3
				c0-6.7-12.1-20.9-37.1-43.6c-10.6-9.7-22.6-18.6-33.1-26.5c-15.4-11.5-27.5-20.6-30.4-27.8c-4.8-12-11.9-49.8-4.6-61.9
				c0.3-0.6,1.1-0.7,1.6-0.4c0.6,0.3,0.7,1.1,0.4,1.6c-6.6,11.1-0.1,47.7,4.8,59.8c2.6,6.5,15.1,15.9,29.6,26.8
				c10.6,7.9,22.5,16.9,33.3,26.6c26.2,23.8,37.8,37.8,37.8,45.3c0,27.8-3,31.6-5.9,31.6c-3.9,0-10.5,6.4-10.5,12.9
				c0,1.4,2,2.7,5.5,3.6c7.9,1.9,19.2,0.5,20.3-1.7c2.3-4.6,9.2-18.5,9.2-34.6c0-15.8,0-32.2-8.9-38.8c-9.7-7.3-44.9-45-49.6-63.8
				c-1.9-7.7-2.3-19.1-2.7-31.2c-0.6-17.8-1.1-36.2-6.6-45.7c-0.3-0.6-0.1-1.3,0.4-1.6c0.6-0.3,1.3-0.1,1.6,0.4
				c5.7,10,6.3,28.7,6.9,46.8c0.4,12,0.7,23.3,2.6,30.7c4.6,18.4,39.2,55.4,48.7,62.5c9.8,7.4,9.8,24.3,9.8,40.7
				c0,16.7-7.1,30.9-9.5,35.6C637.4,736.7,631.3,737.9,625,737.9z"/>
			<path class="st1" d="M195.4,395.2c-0.4,0-0.7-0.2-1-0.5c-0.4-0.5-0.2-1.3,0.3-1.6c7.2-4.8,16.6-4.9,17-4.9c0.6,0,1.2,0.5,1.2,1.2
				c0,0.6-0.5,1.2-1.2,1.2c-0.1,0-9.1,0.1-15.7,4.5C195.9,395.2,195.7,395.2,195.4,395.2z"/>
			<g>
				<path class="st1" d="M275,477.2c-0.1,0-0.3,0-0.4-0.1c-0.6-0.2-0.9-0.9-0.7-1.5c4.9-12.2,25.8-14.7,26.7-14.8
					c0.6-0.1,1.2,0.4,1.3,1c0.1,0.6-0.4,1.2-1,1.3c-0.2,0-20.4,2.4-24.8,13.3C275.9,476.9,275.5,477.2,275,477.2z"/>
				<path class="st1" d="M509,505.2c-0.4,0-0.7-0.2-1-0.5c-0.2-0.3-4.8-7.2-7.2-14.3c-0.2-0.6,0.1-1.3,0.7-1.5
					c0.6-0.2,1.3,0.1,1.5,0.7c2.3,6.8,6.8,13.7,6.9,13.8c0.4,0.5,0.2,1.3-0.3,1.6C509.5,505.2,509.3,505.2,509,505.2z"/>
				<path class="st1" d="M546.5,561.4c-0.3,0-0.6-0.1-0.8-0.3c-2.7-2.7-5-14.9-5-26.6c0-0.6,0.5-1.2,1.2-1.2c0.6,0,1.2,0.5,1.2,1.2
					c0,12.6,2.6,23.1,4.3,24.9c0.5,0.5,0.5,1.2,0,1.7C547.1,561.3,546.8,561.4,546.5,561.4z"/>
				<g>
					<path class="st1" d="M342.9,559.1c-0.1,0-0.1,0-0.2,0c-0.6-0.1-1.1-0.7-1-1.3c1.3-7.7,3.8-28.8,0.2-34.3
						c-0.4-0.5-0.2-1.3,0.3-1.6c0.5-0.4,1.3-0.2,1.6,0.3c4.9,7.3,0.4,34.8,0.2,35.9C343.9,558.7,343.4,559.1,342.9,559.1z"/>
					<path class="st1" d="M352.2,561.4c-0.2,0-0.4-0.1-0.6-0.2c-0.5-0.4-0.7-1.1-0.3-1.6c4.4-6.6,6.8-27.4,4.5-38.9
						c-0.1-0.6,0.3-1.3,0.9-1.4c0.6-0.1,1.3,0.3,1.4,0.9c2.4,12.2-0.1,33.5-4.9,40.7C353,561.2,352.6,561.4,352.2,561.4z"/>
					<path class="st1" d="M363.9,561.4c-0.2,0-0.4,0-0.5-0.1c-0.6-0.3-0.8-1-0.5-1.6c2.4-4.8,9.2-27.9,9.2-36.9
						c0-0.6,0.5-1.2,1.2-1.2s1.2,0.5,1.2,1.2c0,9.5-7,32.9-9.5,38C364.8,561.2,364.4,561.4,363.9,561.4z"/>
					<path class="st1" d="M378,563.7c-0.2,0-0.4,0-0.5-0.1c-0.6-0.3-0.8-1-0.5-1.6c2.1-4.1,9.3-27.4,6.9-41.4
						c-0.1-0.6,0.3-1.2,1-1.3c0.6-0.1,1.2,0.3,1.3,1c2.5,14.8-4.9,38.5-7.1,42.8C378.8,563.5,378.4,563.7,378,563.7z"/>
					<path class="st1" d="M394.4,561.4c-0.1,0-0.2,0-0.4-0.1c-0.6-0.2-0.9-0.9-0.7-1.5c2.1-6.2,9.3-39.1,7-55.6
						c-0.1-0.6,0.4-1.2,1-1.3c0.6-0.1,1.2,0.4,1.3,1c2.4,16.9-5,50.4-7.1,56.7C395.3,561.1,394.8,561.4,394.4,561.4z"/>
					<path class="st1" d="M408.4,561.4c-0.2,0-0.4,0-0.5-0.1c-0.6-0.3-0.8-1-0.5-1.6c2.3-4.6,6.9-37.1,6.9-46.3
						c0-0.6,0.5-1.2,1.2-1.2c0.6,0,1.2,0.5,1.2,1.2c0,9.6-4.7,42.4-7.1,47.3C409.2,561.2,408.8,561.4,408.4,561.4z"/>
					<path class="st1" d="M429.5,538c0,0-0.1,0-0.1,0c-0.6-0.1-1.1-0.7-1-1.3c0-0.2,2.3-20.9,0.1-27.6c-0.2-0.6,0.1-1.3,0.7-1.5
						c0.6-0.2,1.3,0.1,1.5,0.7c2.4,7.2,0.1,27.7,0.1,28.6C430.6,537.6,430.1,538,429.5,538z"/>
					<path class="st1" d="M441.2,531c-0.1,0-0.1,0-0.1,0c-0.6-0.1-1.1-0.7-1-1.3c0-0.2,2.3-18.5,0.1-25.2c-0.2-0.6,0.1-1.3,0.7-1.5
						c0.6-0.2,1.3,0.1,1.5,0.7c2.4,7.2,0.1,25.5,0.1,26.3C442.3,530.6,441.7,531,441.2,531z"/>
					<path class="st1" d="M450.5,524c-0.1,0-0.2,0-0.2,0c-0.6-0.1-1-0.7-0.9-1.4c0-0.1,2.3-11.5,0-18.1c-0.2-0.6,0.1-1.3,0.7-1.5
						c0.6-0.2,1.3,0.1,1.5,0.7c2.4,7.2,0.1,18.8,0,19.3C451.6,523.6,451.1,524,450.5,524z"/>
					<path class="st1" d="M455.2,547.4c-0.2,0-0.5-0.1-0.6-0.2c-0.5-0.4-0.7-1.1-0.3-1.6c5.1-7.6,40.9-23.9,52.5-23.9
						c0.6,0,1.2,0.5,1.2,1.2s-0.5,1.2-1.2,1.2c-11.8,0-46.2,16.4-50.5,22.9C456,547.2,455.6,547.4,455.2,547.4z"/>
				</g>
			</g>
		</g>
		<g>
			<g>
				<path class="st1" d="M1469.6,600.5c2.3,16.6,11.4,23.6,12.8,34.3c1.8,13.5,3.4,69.5-1.3,69.5c-4.7,0-16.4,11.7-18.7,21.1
					c-2.3,9.4,25.7,4.7,25.7,4.7s18.7-2.3,18.7-35.1c0-12.6-1.4-32.2-3.1-51.6C1500.9,612.6,1467.5,585.8,1469.6,600.5z"/>
				<path class="st1" d="M1474.5,732.4c-5.1,0-10.2-0.7-12.3-3c-1.1-1.2-1.4-2.7-1-4.3c2.4-9.6,14.1-21.6,19.6-21.9
					c3.3-3.9,2.2-53.8,0.4-68.2c-0.6-4.6-2.7-8.5-5.1-13c-3-5.6-6.4-12-7.7-21.4l0,0c-0.3-2.3,0.1-3.9,1.3-4.8
					c1.3-1,3.1-0.9,5.5,0.2c9,4,27.6,24.3,29.6,47.3c2.1,23.3,3.1,40.7,3.1,51.7c0,33.4-18.9,36.2-19.7,36.3
					C1487,731.4,1480.7,732.4,1474.5,732.4z M1470.7,600.3c1.3,9,4.5,15.1,7.5,20.6c2.4,4.5,4.7,8.8,5.3,13.8
					c1.4,10.7,3.5,64.9-1,70.1c-0.5,0.6-1.1,0.7-1.5,0.7c-4,0-15.4,11.3-17.6,20.2c-0.3,1.2,0.1,1.8,0.4,2.2c3.3,3.6,18.4,2,24,1.1
					c0.8-0.1,17.7-2.7,17.7-34c0-10.9-1-28.2-3.1-51.5c-2-22.1-19.7-41.6-28.3-45.4c-1.5-0.7-2.6-0.8-3.1-0.4
					C1470.7,598,1470.5,599,1470.7,600.3L1470.7,600.3z"/>
			</g>
			<g>
				<path class="st1" d="M1777.3,648.8c13.8,15.6,22.1,20.4,22.1,32.1s2.3,28.1-4.7,28.1c-7,0-14,11.7-14,16.4
					c0,4.7,28.1,2.3,28.1,2.3s9.5,2.3,11.7-30.4c2.3-35.1-23.4-35.1-30.4-39.8C1782.9,652.8,1777.3,648.8,1777.3,648.8z"/>
				<path class="st1" d="M1794.9,729.5c-6.3,0-12.6-0.5-14.6-2.3c-0.7-0.6-0.8-1.3-0.8-1.8c0-4.9,7.2-17.6,15.2-17.6
					c0.7,0,1.3-0.2,1.8-0.7c2.5-2.6,2.2-11.2,1.9-18.8c-0.1-2.5-0.2-5.1-0.2-7.4c0-8.3-4.5-13-12.6-21.4c-2.7-2.8-5.8-6-9.2-9.9
					l-6.7-7.6l8.2,5.8c0.1,0,5.7,4.1,12.7,8.7c1.3,0.9,3.4,1.6,5.8,2.4c10.1,3.5,27.1,9.4,25.1,38.4c-1.4,20.5-5.7,27.8-9.1,30.3
					c-1.8,1.3-3.3,1.3-3.8,1.2C1806.5,729.1,1800.7,729.5,1794.9,729.5z M1785.3,655.8c0.7,0.7,1.3,1.4,2,2.1
					c8.2,8.6,13.2,13.8,13.2,23.1c0,2.3,0.1,4.8,0.2,7.3c0.3,8.8,0.6,17.2-2.6,20.5c-0.9,1-2.1,1.5-3.5,1.5
					c-6.3,0-12.9,11.3-12.9,15.2c0.7,1.7,13.2,2.3,26.8,1.2l0.2,0l0.2,0l0,0c0,0,1,0.1,2.3-0.9c2.4-1.9,6.6-8.1,8-28.4
					c1.8-27.2-13.5-32.5-23.6-36c-2.6-0.9-4.8-1.7-6.3-2.7C1787.9,657.5,1786.5,656.6,1785.3,655.8z"/>
			</g>
			<g>
				<path class="st0" d="M1709.8,608.4c-47.6-6.3-76.7-1.7-102.3,9.4c-25.6,11.1-74.2,10.2-88.3,2.7l-3.7-30.7l183.7-25.4
					c0,0,26.5,32.3,19.5,35.7S1709.8,608.4,1709.8,608.4z"/>
				<path class="st1" d="M1557,627.4c-16.6,0-31.5-2.2-38.4-5.8l1.1-2.1c13.4,7.1,61.6,8.4,87.3-2.7c28.6-12.4,59.8-15.3,103.4-9.5
					l-0.8,2.3c-43.1-5.7-73.5-2.9-101.7,9.3C1594.2,624.9,1574.7,627.4,1557,627.4z"/>
			</g>
			<g>
				<path class="st0" d="M1520.5,598.8c-1.1,21.3-2,34.3-2,40c0,11.7,9.2,53,6.9,64.7s-13.9,28.9-18.6,33.6
					c-4.7,4.7-25.7,2.3-28.1,0s0-14,9.4-18.7c9.4-4.7,9.4,2.3,11.7-30.4s-6.8-50.2-15.3-58.6c-12.2-12-27.1-27.1-32.7-38.9
					c-5-10.6-32.4-41.5-37.1-57.9c-4.7-16.4-6.3-27.5-9.7-51.7c-3.5-25-7.7-47.5-14.7-59.2l74.3-32.5c15.8,9.3,36.7,34.5,44,40.3
					c11.7,9.4,35.4,15.9,46.4,20.4c59.4,24.4,137.4,4.8,172.3,9.5c7,0.9,34.5,7.2,59.1,31.8c14,14,17.4,38.3,20.2,50.6
					c7.1,30,49.5,86.8,47.2,86.8s-32.3-13.3-43.8-26.1c-9.1-10.2-27.5-35.5-27.9-45.5"/>
				<path class="st1" d="M1494.6,740.9c-7.3,0-15.1-1.4-16.7-3c-1.1-1.1-1.4-3.3-1-6c0.8-4.7,4-11.3,10.7-14.6
					c1.8-0.9,3.2-1.4,4.4-1.8c4.6-1.5,4.8-1.6,6.7-27.7c2.5-34.9-8.3-51.2-14.9-57.7c-13-12.8-27.4-27.5-32.9-39.2
					c-1.9-3.9-7-10.9-12.9-18.9c-9.5-12.9-21.3-28.8-24.3-39.2c-4.7-16.6-6.4-27.9-9.7-51.8c-3.1-22.2-7.2-46.6-14.5-58.8l-0.7-1.1
					l76.1-33.3l0.5,0.3c10.7,6.3,23.7,19.8,33.2,29.6c4.6,4.8,8.6,8.9,10.9,10.8c8.5,6.8,23.4,12.1,35.4,16.3
					c4.2,1.5,7.9,2.8,10.8,4c39.3,16.2,86.7,12.9,124.7,10.3c19.1-1.3,35.5-2.4,47.3-0.8c3.3,0.4,32.9,5.2,59.8,32.1
					c12.3,12.3,16.5,32.2,19.3,45.3c0.5,2.1,0.9,4.1,1.3,5.8c4.9,20.7,27.1,54.8,39.1,73.2c8.4,12.9,8.6,13.4,8.1,14.4l-0.3,0.6
					l-0.8,0c-2.8,0-32.9-13.4-44.6-26.5c-7.9-8.8-27.8-35.4-28.2-46.2l2.3-0.1c0.3,9.4,18.4,34.5,27.6,44.7
					c9.8,11,33.5,22.3,40.9,25.1c-1.4-2.3-4.1-6.5-6.9-10.8c-12-18.5-34.4-52.8-39.4-73.9c-0.4-1.7-0.8-3.7-1.3-5.9
					c-2.7-12.9-6.8-32.3-18.6-44.1c-26.8-26.8-57.2-31.3-58.5-31.4c-11.5-1.6-27.9-0.4-46.8,0.9c-38.3,2.6-85.9,5.9-125.7-10.5
					c-2.8-1.2-6.5-2.4-10.7-3.9c-12.1-4.3-27.2-9.6-36-16.7c-2.5-2-6.3-6-11.1-11c-9.2-9.6-21.8-22.7-32.2-28.9l-72.6,31.8
					c7.1,12.8,11.1,36.7,14.2,58.5c3.3,23.8,5,35.1,9.7,51.5c2.8,9.9,14.5,25.7,23.9,38.4c6,8.1,11.2,15.2,13.1,19.3
					c5.4,11.4,19.5,25.9,32.4,38.6c6.9,6.8,18.2,23.7,15.6,59.5c-1.9,26.6-2.2,27.7-8.3,29.8c-1.1,0.4-2.5,0.8-4.1,1.6
					c-5.9,2.9-8.7,8.8-9.4,12.9c-0.4,2.5,0.1,3.7,0.3,4c0.6,0.6,5.3,2,12.4,2.3c6.9,0.3,12.3-0.5,14-2.3c4.4-4.4,15.9-21.5,18.2-33
					c1.4-6.8-1.4-24.4-3.8-39.9c-1.7-10.6-3.1-19.8-3.1-24.5c0-4.1,0.4-11.9,1.1-23.7c0.3-4.8,0.6-10.2,0.9-16.3l2.3,0.1
					c-0.3,6.1-0.6,11.6-0.9,16.3c-0.7,11.8-1.1,19.6-1.1,23.6c0,4.6,1.5,14.1,3.1,24.1c2.5,15.7,5.2,33.5,3.8,40.8
					c-2.3,11.7-13.7,29-18.9,34.2C1505.4,740.1,1500.1,740.9,1494.6,740.9z"/>
			</g>
			<g>
				<path class="st0" d="M1694.8,571.1c0,19.8,27.9,63.6,58.3,80.5c36,20.1,61.5,28.7,62.6,31.6c2.4,6.6,0,35.1-4.7,35.1
					c-4.7,0-11.7,7-11.7,14c0,7,28.6,4.7,30.9,0c2.3-4.7,3.7-16.7,6.5-32.8c2.2-12.7,2-34.7-5.3-38.3c-18.9-9.4-41.8-54.1-46.4-72.8
					c-4.7-18.7,0.2-50.4-9.1-66.8"/>
				<path class="st1" d="M1812,738c-3.1,0-5.9-0.2-8.1-0.8c-4.8-1.1-5.8-3.3-5.8-4.9c0-7.5,7.5-15.2,12.9-15.2c0,0,0.3-0.1,0.7-0.8
					c3.3-5.6,4.8-27.3,2.8-32.7c-0.6-1-6.9-3.8-14.2-7.1c-11.1-5.1-27.9-12.7-47.9-23.8c-29.8-16.6-58.9-60.7-58.9-81.6h2.3
					c0,20.2,28.5,63.3,57.7,79.5c19.9,11.1,36.6,18.7,47.7,23.7c11.2,5.1,14.8,6.8,15.4,8.5c2.3,6.2,0.6,29.6-3.3,35.1
					c-0.7,1-1.6,1.6-2.5,1.6c-3.9,0-10.5,6.4-10.5,12.9c0,1.4,2.5,2.2,3.9,2.6c8.7,2.1,23.6-0.6,24.8-3.1c1.6-3.3,2.8-10.5,4.4-20.6
					c0.6-3.6,1.2-7.6,2-11.9c2.3-13.3,1.7-33.9-4.7-37c-18.9-9.4-42.1-53.9-47-73.6c-1.9-7.7-2.2-17.3-2.6-27.4
					c-0.5-14.5-1-29.5-6.4-39.1l2-1.2c5.7,10,6.2,25.3,6.7,40.1c0.3,10,0.6,19.5,2.5,26.9c4.8,19.3,27.5,62.9,45.8,72
					c8.3,4.1,8,27.8,5.9,39.5c-0.7,4.3-1.4,8.3-2,11.9c-1.7,10.2-2.8,17.6-4.6,21.3C1829.7,736.2,1820.1,738,1812,738z"/>
			</g>
			<g>
				<path class="st1" d="M1685.7,543.3l-2.3-0.1c0-0.7,0.8-16.8,5.5-22.2l1.8,1.5C1686.4,527.3,1685.7,543.1,1685.7,543.3z"/>
				<path class="st1" d="M1652.3,589.5v-2.3c14.7,0,21.4-13.4,21.5-13.6l2.1,1C1675.6,575.2,1668.4,589.5,1652.3,589.5z"/>
				<path class="st1" d="M1672.2,596.2c-0.9,0-1.9,0-3-0.1l0.2-2.3c11.1,1,14.1-3.9,14.1-3.9l2,1.2
					C1685.4,591.2,1682.5,596.2,1672.2,596.2z"/>
				<path class="st1" d="M1562.7,596.2c-0.6-0.1-13.9-1.6-23.7-6.8l1.1-2.1c9.4,5,22.7,6.6,22.8,6.6L1562.7,596.2z"/>
				<path class="st1" d="M1553.5,617c-0.3-0.1-6.5-1.6-14.5-5.8l1.1-2.1c7.8,4,13.9,5.5,14,5.6L1553.5,617z"/>
				<path class="st1" d="M1509.9,480.9l-2.3-0.2c0-0.4,0.7-10,2.9-13.7l2,1.2C1510.9,470.9,1510,478.3,1509.9,480.9z"/>
				<path class="st1" d="M1526.8,623.5l-2-1.2c0.1-0.1,6-10,5.6-16.7l2.3-0.1C1533.1,612.9,1527,623.1,1526.8,623.5z"/>
			</g>
			<g>
				<path class="st0" d="M1434.2,367.3c0,0-7,46.8,4.7,46.8c11.7,0,29.9-23,30.3-27.7c0.3-4.2-15.2-46.2-48-46.2
					c-38.3,0-43.1,22.4-50.1,29.4c-7,7-30.4,9.4-32.8,18.7c-2.3,9.4,15.6,35.7,20.3,38c4.7,2.3,69.4,10.4,75.7-16.3"/>
				<path class="st1" d="M1387.6,430.5c-14.8,0-27.6-2.1-29.6-3.1c-5-2.5-23.5-29.2-20.9-39.4c1.5-6,10.3-9.2,18.8-12.3
					c5.7-2.1,11.6-4.2,14.3-7c1.3-1.3,2.6-3.3,4.1-5.6c6.2-9.6,15.7-24.1,46.8-24.1c11.8,0,22.5,5.2,31.9,15.4
					c11.5,12.5,17.5,29.1,17.2,32.1c-0.4,5-18.7,28.8-31.4,28.8c-1.6,0-3-0.7-4.1-2c-0.1-0.1-0.2-0.2-0.2-0.3
					c-2,4.9-6.1,8.8-12.2,11.7C1412.7,429.2,1399.6,430.5,1387.6,430.5z M1421.2,341.4c-29.9,0-38.9,13.9-44.9,23
					c-1.6,2.4-2.9,4.5-4.4,6c-3.1,3.1-9,5.3-15.2,7.5c-7.9,2.9-16.1,5.8-17.3,10.7c-2.2,8.7,15.7,34.7,19.7,36.7
					c3.3,1.6,41.8,6.7,62.2-2.8c6.4-3,10.4-7.2,11.7-12.4c-4.5-11.9-0.2-41.6,0-43l2.3,0.3c-1.5,10.2-4.3,37.9,1.2,44.3
					c0.7,0.8,1.4,1.2,2.3,1.2c10.9,0,28.8-22.7,29.1-26.6c0.1-1.9-5-17.7-16.6-30.3C1442.4,346.3,1432.3,341.4,1421.2,341.4z"/>
			</g>
			<g>
				<path class="st0" d="M1338.3,383.7c4.7-2.3,9.4-2.3,9.4,4.7c0,7-7,11.7-9.4,9.4C1335.9,395.4,1333.6,386,1338.3,383.7z"/>
				<path class="st1" d="M1339.9,399.5c-1,0-1.8-0.3-2.4-1c-1.9-1.9-3.5-7.1-2.9-11.1c0.4-2.3,1.5-4,3.2-4.9c3.5-1.7,6.3-2,8.3-0.8
					c1.8,1.1,2.7,3.3,2.7,6.5c0,5.2-3.4,9.3-6.7,10.7C1341.3,399.3,1340.6,399.5,1339.9,399.5z M1343.2,383.5
					c-1.2,0-2.7,0.4-4.4,1.3c-1,0.5-1.7,1.6-1.9,3.1c-0.6,3.4,1,7.7,2.2,9c0.4,0.4,1.1,0.4,2.1,0c2.6-1.1,5.3-4.4,5.3-8.5
					c0-2.3-0.5-3.8-1.6-4.5C1344.4,383.6,1343.9,383.5,1343.2,383.5z"/>
			</g>
		</g>
	</g>
</g>
<g id="Layer_2">
</g>
<g id="Layer_3">
</g>
<g id="Layer_4">
</g>
<g id="Layer_5">
</g>
<g id="Layer_6">
</g>
</svg>
